<?xml version="1.0" encoding="UTF-8"?>
<svg width="17px" height="17px" viewBox="0 0 17 17" version="1.1" xmlns="http://www.w3.org/2000/svg" xmlns:xlink="http://www.w3.org/1999/xlink">
    <!-- Generator: Sketch 56.2 (81672) - https://sketch.com -->
    <title>cluster</title>
    <desc>Created with Sketch.</desc>
    <g id="cluster" stroke="none" stroke-width="1" fill="none" fill-rule="evenodd">
        <path d="M10.7895412,8.99997336 L13.1052205,9 L14.8420847,6 L13.1052205,2.99998095 L9.63147444,2.99998095 L7.89483297,6 L9.63172383,8.99997336 L9.6317862,8.99997336 L11.9469934,12.9999772 L10.2101381,16 L9.05222282,16 L6.73639209,16 L5,12.9999772 L6.73755005,10 L7.89454799,9.99954538 L8.47374614,10.9999797 L7.31583073,10.9999797 L6.15741663,12.9999772 L7.31533196,14.9999746 L9.63134081,15 L10.7895769,12.9999772 L6.73691764,6 L9.05278397,2 L13.6841693,2 L16,6 L13.6841693,9.99998985 L11.3686771,9.99998985 L10.7895412,8.99997336 Z M6.99973234,8 L6.39972217,9 L2.80015968,9 L1,5.99998225 L2.80006738,3.00016 L2.79998431,3 L6.39976828,3 L7,4 L3.40007753,4 L3.40010522,4.00004444 L2.2004449,5.99998225 L3.40012368,8 L5.79962893,8 L6.39985135,7.00004441 L6.99968615,7.99983112 L5.88433464,8 L6.99973234,8 Z" fill="#000000" fill-rule="nonzero"></path>
    </g>
</svg>