<?xml version="1.0" encoding="UTF-8"?>
<svg width="17px" height="17px" viewBox="0 0 17 17" version="1.1" xmlns="http://www.w3.org/2000/svg" xmlns:xlink="http://www.w3.org/1999/xlink">
    <!-- Generator: Sketch 56.2 (81672) - https://sketch.com -->
    <title>dashboard</title>
    <desc>Created with Sketch.</desc>
    <g id="dashboard" stroke="none" stroke-width="1" fill="none" fill-rule="evenodd">
        <path d="M6.11167235,10.1664186 L8.88872083,6.00015551 L10,6 L6.66724786,10.9996593 L5.55584045,11 L5,10.1664186 L5.55609685,9.33322224 L6.11167235,10.1664186 Z M2.038888,8.2222459 L2.56,9.11111111 L2.04,10 L1,8.22222222 L3.599464,3.77868642 L4.64,2 L11.92,2 L13.48,4.66666666 L14,5.55555556 L11.920504,9.1111269 L10.88096,9.1111269 L9.83863199,7.33331755 L10.35864,6.44404935 L11.399856,8.22205632 L12.959968,5.55550024 L11.400048,2.88888889 L5.15888802,2.88888889 L4.118896,4.66666666 L2.038888,8.2222459 Z M14.9600192,7 L16,8.77777252 L12.3598272,15 L5.0799616,15 L3.5198864,12.3333254 L3,11.444455 L4.56022719,8.77794631 L5.60030398,8.77778041 L4.04118878,11.4423849 L5.59906402,14.1111374 L11.8401088,14.1111374 L14.9600672,8.7777962 L14.4400128,7.88890994 L14.9600192,7 Z" fill="#000000" fill-rule="nonzero"></path>
    </g>
</svg>