<?xml version="1.0" encoding="UTF-8"?>
<svg width="17px" height="17px" viewBox="0 0 17 17" version="1.1" xmlns="http://www.w3.org/2000/svg" xmlns:xlink="http://www.w3.org/1999/xlink">
    <!-- Generator: Sketch 56.2 (81672) - https://sketch.com -->
    <title>dataset</title>
    <desc>Created with Sketch.</desc>
    <g id="dataset" stroke="none" stroke-width="1" fill="none" fill-rule="evenodd">
        <path d="M9.60999031,14.9834931 L9.6000908,15 L8.40013433,15 L7.19991949,15 L6,13 L7.19991949,13 L7.80000846,13.9999738 L10.1998291,13.9999738 L9.60999031,14.9834931 L10.8000435,13 L12,13 L10.7997943,15 L9.60008714,15 L9.60999031,14.9834931 Z M8.33342226,12 L5.66742908,12 L4.33400691,12 L3,10 L4.33342225,10 L5.00071799,11.0004355 L9,11.0001955 L8.33342226,12 Z M16,4.99996888 L16,5 L16,5.00002224 L13.6920728,8.99985776 L13.1151487,8.99987552 L13.1151487,8.99991112 L11.3844829,9 L11.96162,7.99994554 L13.1151487,7.99994554 L13.1151487,8.0002033 L14.8458766,5.00002224 L13.1153173,2 L10.8076831,2 L10.8076831,1.99977 L10.2305104,2.99998444 L9.07690192,2.99998444 L6.76946285,2.99998444 L6.19231686,2 L3.88462049,2 L2.1538482,4.99996888 L3.8843631,7.9999189 L10.8074523,7.99994554 L10.2304572,8.99893329 L3.30768752,8.99947552 L1,4.99996888 L3.30769639,1 L6.76924102,1 L7.34640475,1.99996556 L9.65360408,1.99996556 L10.2307501,1 L10.8076831,1 L11.3845983,1 L12.538482,1 L13.6923302,1 L16,4.99996888 Z M11.5,11.0000444 L11.9999616,10.0004089 L13,10 L12.0001692,11.9999733 L11.5002461,12 L11.0211811,12 L10.9999,12 L10,12 L10.5,11.0001244 L11.5,11.0000444 Z" fill="#000000" fill-rule="nonzero"></path>
    </g>
</svg>