<?xml version="1.0" encoding="UTF-8"?>
<svg width="34px" height="34px" viewBox="0 0 34 34" version="1.1" xmlns="http://www.w3.org/2000/svg" xmlns:xlink="http://www.w3.org/1999/xlink">
    <!-- Generator: Sketch 56.3 (81716) - https://sketch.com -->
    <title>experiment-detail</title>
    <desc>Created with Sketch.</desc>
    <g id="experiment-detail" stroke="none" stroke-width="1" fill="none" fill-rule="evenodd">
        <path d="M17.5535473,22 C16.7849025,22 16.1544123,21.4551118 16.107012,20.7684568 L11,15 L17.5535473,19.3737168 C18.3515902,19.3737168 19,19.9607155 19,20.6840111 C19,21.4088802 18.3515902,22 17.5535473,22 Z M10,27 L25,27 L25,30 L10,30 L10,27 Z M29.0208137,9.93121823 C32.2316271,13.1110211 34,17.3390356 34,21.8360698 C34,24.7397879 33.261421,27.5303874 31.874465,30 L28.6969423,30 L26.3730895,28.6710721 L27.3993165,26.9105507 L30.3876367,28.6191835 C31.4435083,26.5836764 32.0396505,24.2776579 32.0396505,21.8360698 C32.0396505,21.4040054 32.0198346,20.9764939 31.983294,20.5535355 L28.4204705,21.1758056 L28.0639425,19.1738965 L31.668855,18.5442474 C31.024679,15.7275074 29.5722512,13.2112657 27.5666421,11.2478216 L25.1240523,14.1308157 L23.5516193,12.8241033 L26.0127568,9.91952171 C23.7559611,8.24126844 21.0089195,7.17696431 18.0263062,6.9768676 L18.0263062,10.8325562 L15.9736938,10.8325562 L15.9736938,6.9768676 C12.9910805,7.17680731 10.2440389,8.24118994 7.98732247,9.91944321 L10.4483807,12.8241033 L8.8758684,14.1308157 L6.43335789,11.2479001 C4.42766955,13.2112657 2.97524175,15.7275074 2.33106577,18.5443259 L5.93605752,19.173818 L5.57960872,21.1758841 L2.01654746,20.5536925 C1.9800069,20.9765724 1.96019098,21.4041624 1.96019098,21.8362268 C1.96019098,24.2776579 2.55657096,26.5835979 3.61228401,28.619262 L6.60052501,26.9104722 L7.62683122,28.6710721 L5.30289919,30 L2.12553503,30 C0.738658299,27.5305444 0,24.7399449 0,21.8362268 C0,17.3391141 1.76821433,13.1111781 4.97910702,9.93121823 C8.18999972,6.75125836 12.4591419,5 17,5 C21.5407788,5 25.8098418,6.75125836 29.0208137,9.93121823 Z" id="Combined-Shape" fill="#030104" fill-rule="nonzero"></path>
    </g>
</svg>