<?xml version="1.0" encoding="UTF-8"?>
<svg width="17px" height="17px" viewBox="0 0 17 17" version="1.1" xmlns="http://www.w3.org/2000/svg" xmlns:xlink="http://www.w3.org/1999/xlink">
    <!-- Generator: Sketch 56.3 (81716) - https://sketch.com -->
    <title>file</title>
    <desc>Created with Sketch.</desc>
    <g id="file" stroke="none" stroke-width="1" fill="none" fill-rule="evenodd">
        <g transform="translate(3.000000, 2.000000)" fill="#000000" fill-rule="nonzero">
            <path d="M3.25,4 L5.75,4 C5.888,4 6,3.7765 6,3.5 C6,3.2235 5.888,3 5.75,3 L3.25,3 C3.112,3 3,3.2235 3,3.5 C3,3.7765 3.112,4 3.25,4 Z" id="Path"></path>
            <path d="M8.77777778,6 L3.22222222,6 C3.09955556,6 3,6.2235 3,6.5 C3,6.7765 3.09955556,7 3.22222222,7 L8.77777778,7 C8.90044444,7 9,6.7765 9,6.5 C9,6.2235 8.90044444,6 8.77777778,6 Z" id="Path"></path>
            <path d="M8.77777778,8 L3.22222222,8 C3.09955556,8 3,8.2235 3,8.5 C3,8.7765 3.09955556,9 3.22222222,9 L8.77777778,9 C8.90044444,9 9,8.7765 9,8.5 C9,8.2235 8.90044444,8 8.77777778,8 Z" id="Path"></path>
            <path d="M8.77777778,10 L3.22222222,10 C3.09955556,10 3,10.2235 3,10.5 C3,10.7765 3.09955556,11 3.22222222,11 L8.77777778,11 C8.90044444,11 9,10.7765 9,10.5 C9,10.2235 8.90044444,10 8.77777778,10 Z" id="Path"></path>
            <path d="M7.58625532,0 L0,0 L0,13 L11,13 L11,3.1603 L7.58625532,0 Z M7.72340426,0.7397 L10.2009787,3.03333333 L7.72340426,3.03333333 L7.72340426,0.7397 Z M0.468085106,12.5666667 L0.468085106,0.433333333 L7.25531915,0.433333333 L7.25531915,3.46666667 L10.5319149,3.46666667 L10.5319149,12.5666667 L0.468085106,12.5666667 Z" id="Shape"></path>
        </g>
    </g>
</svg>