<?xml version="1.0" encoding="UTF-8"?>
<svg width="17px" height="17px" viewBox="0 0 17 17" version="1.1" xmlns="http://www.w3.org/2000/svg" xmlns:xlink="http://www.w3.org/1999/xlink">
    <!-- Generator: Sketch 56.2 (81672) - https://sketch.com -->
    <title>projects</title>
    <desc>Created with Sketch.</desc>
    <g id="projects" stroke="none" stroke-width="1" fill="none" fill-rule="evenodd">
        <path d="M5.80009603,2 L2.20017171,7.57145331 L7,15 L5.79984677,15 L1,7.57142857 L4.59992429,2 L5.80009603,2 Z M10.37525,10.3333333 L10.3750962,10.3331133 L7.87474035,14 L7.24973076,13.0833089 L9.75000002,9.41666667 L9.75020192,9.41666667 L6,3.91683778 L6.62486534,3 L11,9.41666667 L10.37525,10.3333333 Z M13.6666667,6 L16,10 L13.6661641,14 L9,14 L9.58335132,13.0000266 L13.0828487,13.0000266 L14.833091,10 L13.0833513,7.00002664 L9.58331538,7.00002664 L9.00050255,6 L13.6666667,6 Z M4,9.99997336 L5.50009226,7 L6,7.99997336 L4.50030764,11 L4,9.99997336 Z M4,7.99997336 L5.50009226,5 L6,5.99997336 L4.50030762,9 L4,7.99997336 Z M8,8.99997336 L6.50030761,12 L6,10.9999734 L7.50009232,8 L8,8.99997336 Z" fill="#000000" fill-rule="nonzero"></path>
    </g>
</svg>